<svg width="97" height="57" viewBox="0 0 97 57" fill="none" xmlns="http://www.w3.org/2000/svg">
<rect width="97" height="57" rx="7" fill="url(#paint0_linear_563_150)"/>
<g clip-path="url(#clip0_563_150)">
<path d="M22.9208 24.7708H12.1237C12.0946 24.7708 12.0655 24.7738 12.0371 24.7794C12.0084 24.7854 11.9807 24.7941 11.9538 24.8057C11.9269 24.8173 11.9014 24.8311 11.8771 24.848C11.8531 24.8648 11.8305 24.8835 11.8098 24.9049C11.7894 24.9262 11.7709 24.9495 11.7549 24.9745C11.7385 24.9993 11.725 25.0258 11.7138 25.0535C11.7025 25.0813 11.6941 25.1101 11.6887 25.1397C11.6828 25.1689 11.6799 25.1988 11.6799 25.2288V33.9978C11.6799 34.0656 11.6865 34.133 11.6992 34.1996C11.7119 34.2663 11.7312 34.3311 11.7563 34.394C11.7814 34.4569 11.8123 34.5164 11.8491 34.573C11.8854 34.6295 11.9269 34.6819 11.9734 34.7299C12.02 34.7778 12.0709 34.8208 12.1255 34.8587C12.1804 34.8965 12.2382 34.9283 12.299 34.9541C12.3597 34.9804 12.4223 34.9998 12.487 35.0133C12.5514 35.0264 12.6168 35.0332 12.6827 35.0332H13.4057C13.4472 35.0332 13.4887 35.0373 13.5294 35.0455C13.5701 35.0541 13.6098 35.0665 13.6483 35.083C13.6869 35.0994 13.7233 35.1197 13.7582 35.1436C13.7927 35.1672 13.8247 35.1945 13.8542 35.2249C13.8837 35.2552 13.9098 35.2885 13.9331 35.3241C13.956 35.3601 13.9757 35.3979 13.9917 35.4376C14.0077 35.4773 14.0197 35.5181 14.0277 35.5604C14.036 35.6027 14.04 35.645 14.04 35.6881V38.1209C14.0397 38.2082 14.0477 38.295 14.0637 38.3808C14.0797 38.4669 14.1033 38.5504 14.1346 38.6313C14.1659 38.7126 14.2044 38.7901 14.2499 38.8638C14.2957 38.9372 14.3477 39.0058 14.4059 39.0694C14.4641 39.1327 14.5278 39.1896 14.5965 39.2405C14.6656 39.2915 14.7384 39.3353 14.8155 39.3716C14.8922 39.4083 14.9719 39.4368 15.0541 39.4577C15.1363 39.4783 15.2196 39.4911 15.3043 39.4952C15.3905 39.4985 15.476 39.4933 15.5611 39.4787C15.6462 39.4641 15.7291 39.4412 15.8099 39.4094C15.8902 39.3776 15.967 39.3379 16.0401 39.29C16.1128 39.2424 16.1801 39.1877 16.2423 39.126C16.3045 39.0642 16.3602 38.9964 16.4089 38.923C16.458 38.8496 16.4991 38.7721 16.5329 38.6901C16.5667 38.6081 16.5922 38.5231 16.6093 38.4358C16.6264 38.3486 16.6351 38.2606 16.6351 38.1715V35.9446C16.6351 35.8847 16.6406 35.8251 16.6522 35.766C16.6635 35.7072 16.6802 35.6499 16.7024 35.5941C16.725 35.5387 16.7522 35.4859 16.7846 35.4357C16.817 35.3855 16.8537 35.3395 16.8948 35.2968C16.9359 35.2545 16.981 35.2163 17.0294 35.1829C17.0778 35.1496 17.129 35.1212 17.1825 35.0983C17.2363 35.0751 17.292 35.0579 17.3491 35.0463C17.4062 35.0343 17.464 35.0287 17.5222 35.0287C17.5804 35.0287 17.6382 35.0343 17.6953 35.0463C17.7524 35.0579 17.8077 35.0751 17.8616 35.0983C17.9154 35.1212 17.9667 35.1496 18.015 35.1829C18.0634 35.2163 18.1085 35.2545 18.1496 35.2968C18.1907 35.3395 18.2274 35.3855 18.2598 35.4357C18.2922 35.4859 18.3195 35.5387 18.342 35.5941C18.3642 35.6499 18.3809 35.7072 18.3922 35.766C18.4038 35.8251 18.4093 35.8847 18.4093 35.9446V38.1209C18.4093 38.2074 18.4169 38.2932 18.4322 38.3782C18.4479 38.4632 18.4708 38.5459 18.5017 38.6264C18.5322 38.7069 18.5697 38.7841 18.6144 38.8571C18.6592 38.9301 18.7101 38.9986 18.7672 39.0619C18.8243 39.1248 18.8869 39.1821 18.9545 39.2334C19.0222 39.2844 19.0938 39.3285 19.1695 39.3656C19.2451 39.4027 19.3233 39.4323 19.4044 39.454C19.4855 39.4757 19.5677 39.4896 19.6514 39.4952C19.7376 39.4985 19.8234 39.4933 19.9085 39.4787C19.9936 39.4641 20.0766 39.4412 20.1569 39.4094C20.2377 39.3776 20.3144 39.3379 20.3872 39.29C20.4603 39.2424 20.5276 39.1877 20.5897 39.126C20.6519 39.0642 20.7072 38.9964 20.7563 38.923C20.8051 38.8496 20.8465 38.7721 20.8804 38.6901C20.9138 38.6081 20.9393 38.5231 20.9567 38.4358C20.9738 38.3486 20.9822 38.2606 20.9822 38.1715V35.6746C20.9822 35.6315 20.9862 35.5889 20.9946 35.5465C21.0026 35.5046 21.0146 35.4634 21.0306 35.4237C21.0466 35.384 21.0662 35.3462 21.0891 35.3106C21.1124 35.2747 21.1386 35.2417 21.168 35.211C21.1975 35.1807 21.2295 35.1537 21.2641 35.1298C21.299 35.1058 21.3354 35.0856 21.3739 35.0691C21.4125 35.0526 21.4521 35.0403 21.4928 35.032C21.5336 35.0234 21.575 35.0193 21.6165 35.0193H22.3665C22.4309 35.0186 22.4952 35.0111 22.5585 34.9976C22.6218 34.9837 22.6833 34.9639 22.7429 34.938C22.8026 34.9118 22.8593 34.8804 22.9128 34.8429C22.9666 34.8059 23.0161 34.7636 23.0619 34.716C23.1077 34.6688 23.1488 34.6175 23.1848 34.5621C23.2208 34.5067 23.2517 34.4483 23.2768 34.3865C23.3019 34.3251 23.3212 34.2614 23.3343 34.1959C23.3478 34.1307 23.3547 34.0644 23.3554 33.9978V25.2198C23.3554 25.1899 23.3529 25.1599 23.347 25.1303C23.3412 25.1007 23.3329 25.0723 23.3219 25.0446C23.3107 25.0165 23.2968 24.9903 23.2808 24.9652C23.2645 24.9401 23.2463 24.9172 23.2256 24.8959C23.2052 24.8746 23.1826 24.8555 23.1583 24.839C23.1343 24.8221 23.1084 24.8079 23.0815 24.7967C23.0546 24.7851 23.027 24.7765 22.9986 24.7705C22.9699 24.7645 22.9411 24.7615 22.912 24.7615L22.9208 24.7708Z" fill="white"/>
<path d="M9.86142 24.7662C9.77704 24.7662 9.69375 24.7745 9.61119 24.7917C9.52863 24.8085 9.44861 24.8336 9.37078 24.867C9.29295 24.9003 9.21911 24.9411 9.14892 24.9894C9.07908 25.0377 9.01434 25.0924 8.95469 25.1538C8.89541 25.2152 8.84194 25.2822 8.79539 25.3545C8.74847 25.4268 8.70919 25.5032 8.67682 25.5833C8.64481 25.6638 8.62044 25.7466 8.60408 25.8319C8.58735 25.9169 8.57935 26.0031 8.57935 26.0903V31.4686C8.57935 31.5555 8.58771 31.6416 8.60408 31.727C8.62044 31.812 8.64481 31.8947 8.67718 31.9749C8.70919 32.0554 8.74883 32.1314 8.79575 32.2037C8.84231 32.2759 8.89541 32.343 8.95506 32.4044C9.01471 32.4658 9.07945 32.5205 9.14928 32.5688C9.21911 32.6171 9.29331 32.6579 9.37078 32.6912C9.44861 32.7242 9.52863 32.7492 9.61119 32.7665C9.69375 32.7833 9.77704 32.7919 9.86142 32.7919C9.94544 32.7919 10.0287 32.7833 10.1113 32.7665C10.1939 32.7492 10.2739 32.7242 10.3517 32.6912C10.4295 32.6579 10.5034 32.6171 10.5732 32.5688C10.643 32.5205 10.7078 32.4658 10.7674 32.4044C10.8271 32.343 10.8802 32.2759 10.9267 32.2037C10.9737 32.1314 11.0133 32.0554 11.0453 31.9749C11.0777 31.8947 11.102 31.812 11.1184 31.727C11.1348 31.6416 11.1431 31.5555 11.1431 31.4686V26.0903C11.1431 26.0034 11.1344 25.9173 11.118 25.8323C11.1013 25.7469 11.0769 25.6642 11.0446 25.584C11.0122 25.5039 10.9726 25.4279 10.926 25.3556C10.8791 25.2834 10.826 25.2167 10.7663 25.1553C10.7071 25.0939 10.6423 25.0388 10.5725 24.9905C10.5026 24.9422 10.4288 24.9014 10.3513 24.8681C10.2735 24.8348 10.1935 24.8093 10.1109 24.7924C10.0287 24.7752 9.94544 24.7662 9.86142 24.7662Z" fill="white"/>
<mask id="mask0_563_150" style="mask-type:luminance" maskUnits="userSpaceOnUse" x="23" y="24" width="4" height="9">
<path d="M23.8315 24.7615H26.4386V32.8138H23.8315V24.7615Z" fill="white"/>
</mask>
<g mask="url(#mask0_563_150)">
<path d="M25.1831 24.7662C25.0991 24.7662 25.0158 24.7752 24.9336 24.7924C24.851 24.8093 24.771 24.8348 24.6932 24.8681C24.6157 24.9014 24.5419 24.9422 24.472 24.9905C24.4022 25.0388 24.3375 25.0939 24.2782 25.1553C24.2185 25.2167 24.1654 25.2834 24.1185 25.3556C24.0719 25.4279 24.0323 25.5039 23.9999 25.584C23.9676 25.6642 23.9432 25.7469 23.9265 25.8323C23.9101 25.9173 23.9014 26.0034 23.9014 26.0903V31.4686C23.9014 31.5555 23.9094 31.6416 23.9257 31.727C23.9421 31.8124 23.9665 31.8951 23.9988 31.9752C24.0308 32.0558 24.0705 32.1318 24.1174 32.2044C24.164 32.2767 24.2171 32.3433 24.2767 32.4047C24.3364 32.4665 24.4011 32.5212 24.4709 32.5695C24.5411 32.6178 24.615 32.6586 24.6924 32.692C24.7703 32.7253 24.8507 32.7504 24.9332 32.7672C25.0158 32.7841 25.0991 32.7927 25.1831 32.7927C25.2675 32.7927 25.3508 32.7841 25.4333 32.7672C25.5159 32.7504 25.5959 32.7253 25.6737 32.692C25.7516 32.6586 25.8254 32.6178 25.8956 32.5695C25.9654 32.5212 26.0302 32.4665 26.0898 32.4047C26.1491 32.3433 26.2026 32.2767 26.2491 32.2044C26.296 32.1318 26.3353 32.0558 26.3677 31.9752C26.3997 31.8951 26.4241 31.8124 26.4404 31.727C26.4572 31.6416 26.4652 31.5555 26.4652 31.4686V26.0903C26.4652 26.0031 26.4572 25.9169 26.4404 25.8319C26.4241 25.7466 26.3997 25.6638 26.3677 25.5833C26.3353 25.5032 26.296 25.4268 26.2491 25.3545C26.2026 25.2822 26.1491 25.2152 26.0898 25.1538C26.0302 25.0924 25.9654 25.0377 25.8956 24.9894C25.8254 24.9411 25.7516 24.9003 25.6737 24.867C25.5959 24.8336 25.5159 24.8085 25.4333 24.7917C25.3508 24.7745 25.2675 24.7662 25.1831 24.7662Z" fill="white"/>
</g>
<path d="M12.1989 24.1155H22.8098C22.8429 24.1163 22.8756 24.1133 22.908 24.1061C22.9404 24.0994 22.9716 24.0885 23.0015 24.0747C23.0316 24.0605 23.06 24.0432 23.0862 24.0226C23.1124 24.0017 23.1364 23.9785 23.1575 23.9522C23.1789 23.926 23.1971 23.898 23.212 23.8676C23.2273 23.8373 23.239 23.8055 23.2473 23.7725C23.2557 23.7396 23.2604 23.7059 23.2615 23.6718C23.2622 23.6377 23.2597 23.604 23.2535 23.5703C23.2102 23.3606 23.1568 23.1539 23.0924 22.9502C23.028 22.7461 22.9531 22.5465 22.8683 22.3511C22.7832 22.1552 22.6887 21.965 22.5839 21.7797C22.4795 21.5943 22.3657 21.4153 22.2428 21.2427C22.1195 21.0701 21.9882 20.9046 21.8481 20.7462C21.7081 20.5878 21.5601 20.4376 21.4048 20.2957C21.2491 20.1538 21.0869 20.0205 20.9178 19.8965C20.7483 19.7722 20.5733 19.6576 20.3922 19.5528L21.2793 17.8621C21.2931 17.8344 21.3018 17.8052 21.3047 17.7745C21.3077 17.7438 21.3051 17.7134 21.2967 17.6835C21.2887 17.6535 21.2753 17.6266 21.2571 17.6019C21.2385 17.5775 21.2164 17.5573 21.1905 17.5412C21.164 17.5258 21.1353 17.5161 21.1047 17.5124C21.0745 17.5086 21.0443 17.5109 21.0149 17.5195C20.9854 17.5281 20.9585 17.5423 20.9341 17.5618C20.9101 17.5816 20.8908 17.6052 20.8759 17.6329L19.9885 19.3326C19.7961 19.2416 19.5997 19.1615 19.3989 19.0922C19.1981 19.0229 18.9945 18.9653 18.7875 18.9184C18.5809 18.872 18.3721 18.8368 18.1619 18.8136C17.9513 18.79 17.7404 18.7784 17.5287 18.7784C17.317 18.7784 17.1061 18.79 16.8958 18.8136C16.6853 18.8368 16.4769 18.872 16.2699 18.9184C16.0633 18.9653 15.8596 19.0229 15.6589 19.0922C15.4581 19.1615 15.2613 19.2416 15.0689 19.3326L14.1375 17.6329C14.1229 17.6056 14.1036 17.5824 14.08 17.5629C14.056 17.5434 14.0298 17.5292 14.0007 17.5206C13.9716 17.512 13.9418 17.5097 13.9116 17.5131C13.8818 17.5169 13.8534 17.5262 13.8269 17.5412C13.8003 17.5565 13.7778 17.5764 13.7588 17.6007C13.7403 17.6254 13.7265 17.6528 13.7181 17.6827C13.7097 17.7127 13.7076 17.7434 13.7108 17.7745C13.7145 17.8056 13.7236 17.8348 13.7381 17.8621L14.6256 19.5528C14.4444 19.6576 14.2695 19.7722 14.1004 19.8965C13.9312 20.0205 13.769 20.1538 13.6137 20.2957C13.4584 20.438 13.3108 20.5881 13.1707 20.7462C13.0311 20.9046 12.8998 21.0701 12.7768 21.2427C12.6539 21.4157 12.5404 21.5947 12.436 21.7797C12.3316 21.965 12.2371 22.1556 12.1523 22.3511C12.0676 22.5465 11.9934 22.7465 11.929 22.9502C11.865 23.1539 11.8115 23.3606 11.7686 23.5703C11.7624 23.604 11.7599 23.6377 11.7606 23.6718C11.7617 23.7059 11.7664 23.7396 11.7748 23.7725C11.7832 23.8055 11.7948 23.8373 11.8101 23.8676C11.825 23.898 11.8432 23.926 11.8646 23.9522C11.8857 23.9785 11.9097 24.0017 11.9359 24.0226C11.9621 24.0432 11.9905 24.0605 12.0207 24.0747C12.0505 24.0885 12.0818 24.0994 12.1141 24.1061C12.1465 24.1133 12.1792 24.1163 12.2123 24.1155H12.1989ZM20.6584 21.5958C20.6584 21.6295 20.6552 21.6628 20.6486 21.6958C20.6424 21.7287 20.633 21.7609 20.6202 21.792C20.6075 21.8227 20.5922 21.8523 20.5741 21.8804C20.5559 21.9081 20.5351 21.9339 20.5119 21.9575C20.4886 21.9811 20.4635 22.0021 20.4362 22.0208C20.4089 22.0392 20.3802 22.0545 20.35 22.0672C20.3198 22.0796 20.2889 22.0893 20.2569 22.0953C20.2249 22.1017 20.1925 22.1043 20.1598 22.1039C20.1274 22.1036 20.095 22.0998 20.0634 22.0927C20.0314 22.086 20.0005 22.0759 19.9707 22.0624C19.9408 22.0489 19.9125 22.0328 19.8855 22.0137C19.8586 21.9942 19.8343 21.9729 19.8113 21.9485C19.7888 21.9242 19.7688 21.898 19.7513 21.8695C19.7335 21.8414 19.719 21.8115 19.7073 21.78C19.6953 21.7486 19.6866 21.7164 19.6811 21.6834C19.6753 21.6501 19.6731 21.6168 19.6739 21.5831C19.6746 21.5497 19.6786 21.5164 19.6859 21.4835C19.6928 21.4509 19.703 21.4191 19.7164 21.3884C19.7295 21.3576 19.7459 21.3284 19.7644 21.3011C19.7833 21.2738 19.8048 21.2483 19.8284 21.2255C19.8521 21.2022 19.8779 21.1817 19.9056 21.1641C19.9332 21.1461 19.9623 21.1315 19.9928 21.1195C20.0234 21.1079 20.0547 21.0989 20.0867 21.0937C20.1187 21.0884 20.1511 21.0862 20.1838 21.0873C20.2162 21.0877 20.2478 21.091 20.2794 21.0978C20.3111 21.1045 20.3416 21.1143 20.3715 21.1274C20.4013 21.1401 20.4297 21.1558 20.4562 21.1745C20.4831 21.1929 20.5079 21.2142 20.5308 21.2374C20.5533 21.261 20.5737 21.2869 20.5919 21.3146C20.6097 21.3419 20.625 21.3711 20.6373 21.4018C20.6501 21.4325 20.6595 21.4644 20.6661 21.4969C20.6726 21.5295 20.6759 21.5625 20.6763 21.5958H20.6584ZM14.8605 21.0873C14.8933 21.0869 14.9256 21.0899 14.958 21.0963C14.99 21.1026 15.0213 21.1124 15.0518 21.1251C15.082 21.1378 15.1108 21.1532 15.1384 21.1719C15.1657 21.1906 15.1908 21.2116 15.214 21.2356C15.2373 21.2592 15.2584 21.285 15.2766 21.3131C15.2948 21.3412 15.3104 21.3708 15.3232 21.4018C15.3359 21.4333 15.3453 21.4655 15.3519 21.4984C15.3584 21.5318 15.3617 21.5651 15.3617 21.5988C15.3617 21.6329 15.3588 21.6662 15.3526 21.6995C15.3461 21.7325 15.3366 21.7647 15.3243 21.7961C15.3119 21.8272 15.2966 21.8572 15.2784 21.8853C15.2602 21.9133 15.2395 21.9392 15.2162 21.9631C15.193 21.9871 15.1679 22.0084 15.1406 22.0272C15.1133 22.0459 15.0846 22.062 15.0544 22.0747C15.0242 22.0878 14.9929 22.0976 14.9609 22.1039C14.9285 22.1103 14.8962 22.1137 14.8634 22.1137C14.8307 22.1133 14.7983 22.1099 14.7663 22.1032C14.7343 22.0964 14.703 22.0867 14.6728 22.0736C14.6427 22.0605 14.6139 22.0444 14.5866 22.0257C14.5597 22.0066 14.5346 21.9852 14.5117 21.9613C14.4884 21.9369 14.4681 21.9111 14.4499 21.8826C14.4321 21.8545 14.4168 21.8246 14.4044 21.7931C14.3921 21.7621 14.383 21.7295 14.3768 21.6965C14.3706 21.6632 14.3677 21.6299 14.3681 21.5958C14.3681 21.5625 14.3713 21.5295 14.3775 21.4966C14.3841 21.464 14.3932 21.4322 14.4055 21.4015C14.4179 21.3704 14.4332 21.3412 14.451 21.3135C14.4692 21.2858 14.4895 21.2599 14.5125 21.2363C14.5354 21.2127 14.5601 21.1918 14.587 21.173C14.6139 21.1543 14.6423 21.139 14.6721 21.1262C14.7019 21.1131 14.7329 21.1038 14.7645 21.097C14.7961 21.0907 14.8282 21.0873 14.8605 21.0873Z" fill="white"/>
<path d="M12.4028 34.9686C12.4963 35.0023 12.5923 35.0188 12.6913 35.0192H13.4143C13.4561 35.0192 13.4972 35.0233 13.538 35.0319C13.5791 35.0401 13.6187 35.0525 13.6569 35.069C13.6955 35.0855 13.7322 35.1057 13.7667 35.1296C13.8013 35.1536 13.8333 35.1806 13.8628 35.2109C13.8922 35.2416 13.9188 35.2746 13.9417 35.3105C13.965 35.3461 13.9846 35.3839 14.0002 35.4236C14.0163 35.4633 14.0283 35.5045 14.0366 35.5464C14.0446 35.5887 14.0486 35.6314 14.0486 35.6745V38.1208C14.0486 38.2077 14.0563 38.2942 14.0719 38.3795C14.0879 38.4653 14.1112 38.5484 14.1421 38.6293C14.1734 38.7102 14.2116 38.7873 14.2567 38.8611C14.3021 38.9345 14.3534 39.0026 14.4112 39.0663C14.4694 39.1296 14.5324 39.1865 14.6007 39.2374C14.6691 39.2883 14.7415 39.3322 14.8179 39.3692C14.8942 39.4059 14.9735 39.4348 15.055 39.4561C15.1368 39.4771 15.2198 39.4902 15.3042 39.495C15.3903 39.4984 15.4758 39.4932 15.5609 39.4786C15.646 39.464 15.729 39.4411 15.8097 39.4093C15.8901 39.3775 15.9668 39.3378 16.0399 39.2898C16.1127 39.2423 16.18 39.1876 16.2422 39.1258C16.3044 39.064 16.36 38.9963 16.4087 38.9229C16.4578 38.8495 16.4989 38.772 16.5328 38.69C16.5666 38.608 16.592 38.523 16.6091 38.4357C16.6262 38.3485 16.635 38.2605 16.635 38.1713V35.9445C16.635 35.8845 16.6404 35.825 16.6521 35.7658C16.6633 35.7071 16.6801 35.6498 16.7023 35.594C16.7248 35.5385 16.7521 35.4858 16.7845 35.4356C16.8168 35.3854 16.8536 35.3393 16.8947 35.2967C16.9358 35.2543 16.9809 35.2161 17.0292 35.1828C17.0776 35.1495 17.1289 35.121 17.1824 35.0982C17.2362 35.075 17.2918 35.0577 17.3489 35.0461C17.406 35.0342 17.4639 35.0285 17.5221 35.0285C17.5803 35.0285 17.6381 35.0342 17.6952 35.0461C17.7523 35.0577 17.8076 35.075 17.8614 35.0982C17.9152 35.121 17.9665 35.1495 18.0149 35.1828C18.0633 35.2161 18.1084 35.2543 18.1495 35.2967C18.1906 35.3393 18.2273 35.3854 18.2597 35.4356C18.292 35.4858 18.3193 35.5385 18.3419 35.594C18.364 35.6498 18.3808 35.7071 18.3921 35.7658C18.4037 35.825 18.4091 35.8845 18.4091 35.9445V38.1208C18.4091 38.2073 18.4168 38.293 18.4321 38.378C18.4477 38.463 18.4706 38.5458 18.5015 38.6263C18.5321 38.7068 18.5695 38.784 18.6143 38.857C18.659 38.93 18.7099 38.9985 18.767 39.0618C18.8241 39.1247 18.8867 39.182 18.9543 39.2333C19.022 39.2842 19.0936 39.3284 19.1693 39.3655C19.245 39.4026 19.3232 39.4321 19.4043 39.4539C19.4854 39.4756 19.5676 39.4894 19.6512 39.495C19.7374 39.4984 19.8233 39.4932 19.9084 39.4786C19.9935 39.464 20.0764 39.4411 20.1568 39.4093C20.2375 39.3775 20.3143 39.3378 20.387 39.2898C20.4601 39.2423 20.5274 39.1876 20.5896 39.1258C20.6518 39.064 20.7071 38.9963 20.7562 38.9229C20.8049 38.8495 20.8464 38.772 20.8802 38.69C20.9137 38.608 20.9391 38.523 20.9566 38.4357C20.9737 38.3485 20.982 38.2605 20.982 38.1713V35.6745C20.982 35.6314 20.986 35.5887 20.9944 35.5464C21.0024 35.5045 21.0144 35.4633 21.0304 35.4236C21.0464 35.3839 21.0661 35.3461 21.089 35.3105C21.1122 35.2746 21.1384 35.2416 21.1679 35.2109C21.1974 35.1806 21.2294 35.1536 21.2639 35.1296C21.2988 35.1057 21.3352 35.0855 21.3738 35.069C21.4123 35.0525 21.4519 35.0401 21.4927 35.0319C21.5334 35.0233 21.5749 35.0192 21.6163 35.0192H22.3663C22.4649 35.0188 22.5613 35.0023 22.6544 34.9686H12.4028Z" fill="white"/>
</g>
<path d="M40.4063 31.175H35.8463L35.0063 33.5H33.5663L37.3463 23.105H38.9213L42.6863 33.5H41.2463L40.4063 31.175ZM40.0163 30.065L38.1263 24.785L36.2363 30.065H40.0163ZM48.3387 25.13C49.3387 25.13 50.1487 25.435 50.7687 26.045C51.3887 26.645 51.6987 27.515 51.6987 28.655V33.5H50.3487V28.85C50.3487 28.03 50.1437 27.405 49.7337 26.975C49.3237 26.535 48.7637 26.315 48.0537 26.315C47.3337 26.315 46.7587 26.54 46.3287 26.99C45.9087 27.44 45.6987 28.095 45.6987 28.955V33.5H44.3337V25.28H45.6987V26.45C45.9687 26.03 46.3337 25.705 46.7937 25.475C47.2637 25.245 47.7787 25.13 48.3387 25.13ZM53.4184 29.36C53.4184 28.52 53.5884 27.785 53.9284 27.155C54.2684 26.515 54.7334 26.02 55.3234 25.67C55.9234 25.32 56.5934 25.145 57.3334 25.145C57.9734 25.145 58.5684 25.295 59.1184 25.595C59.6684 25.885 60.0884 26.27 60.3784 26.75V22.4H61.7584V33.5H60.3784V31.955C60.1084 32.445 59.7084 32.85 59.1784 33.17C58.6484 33.48 58.0284 33.635 57.3184 33.635C56.5884 33.635 55.9234 33.455 55.3234 33.095C54.7334 32.735 54.2684 32.23 53.9284 31.58C53.5884 30.93 53.4184 30.19 53.4184 29.36ZM60.3784 29.375C60.3784 28.755 60.2534 28.215 60.0034 27.755C59.7534 27.295 59.4134 26.945 58.9834 26.705C58.5634 26.455 58.0984 26.33 57.5884 26.33C57.0784 26.33 56.6134 26.45 56.1934 26.69C55.7734 26.93 55.4384 27.28 55.1884 27.74C54.9384 28.2 54.8134 28.74 54.8134 29.36C54.8134 29.99 54.9384 30.54 55.1884 31.01C55.4384 31.47 55.7734 31.825 56.1934 32.075C56.6134 32.315 57.0784 32.435 57.5884 32.435C58.0984 32.435 58.5634 32.315 58.9834 32.075C59.4134 31.825 59.7534 31.47 60.0034 31.01C60.2534 30.54 60.3784 29.995 60.3784 29.375ZM65.4302 26.615C65.6702 26.145 66.0102 25.78 66.4502 25.52C66.9002 25.26 67.4452 25.13 68.0852 25.13V26.54H67.7252C66.1952 26.54 65.4302 27.37 65.4302 29.03V33.5H64.0652V25.28H65.4302V26.615ZM73.2459 33.635C72.4759 33.635 71.7759 33.46 71.1459 33.11C70.5259 32.76 70.0359 32.265 69.6759 31.625C69.3259 30.975 69.1509 30.225 69.1509 29.375C69.1509 28.535 69.3309 27.795 69.6909 27.155C70.0609 26.505 70.5609 26.01 71.1909 25.67C71.8209 25.32 72.5259 25.145 73.3059 25.145C74.0859 25.145 74.7909 25.32 75.4209 25.67C76.0509 26.01 76.5459 26.5 76.9059 27.14C77.2759 27.78 77.4609 28.525 77.4609 29.375C77.4609 30.225 77.2709 30.975 76.8909 31.625C76.5209 32.265 76.0159 32.76 75.3759 33.11C74.7359 33.46 74.0259 33.635 73.2459 33.635ZM73.2459 32.435C73.7359 32.435 74.1959 32.32 74.6259 32.09C75.0559 31.86 75.4009 31.515 75.6609 31.055C75.9309 30.595 76.0659 30.035 76.0659 29.375C76.0659 28.715 75.9359 28.155 75.6759 27.695C75.4159 27.235 75.0759 26.895 74.6559 26.675C74.2359 26.445 73.7809 26.33 73.2909 26.33C72.7909 26.33 72.3309 26.445 71.9109 26.675C71.5009 26.895 71.1709 27.235 70.9209 27.695C70.6709 28.155 70.5459 28.715 70.5459 29.375C70.5459 30.045 70.6659 30.61 70.9059 31.07C71.1559 31.53 71.4859 31.875 71.8959 32.105C72.3059 32.325 72.7559 32.435 73.2459 32.435ZM79.9606 23.945C79.7006 23.945 79.4806 23.855 79.3006 23.675C79.1206 23.495 79.0306 23.275 79.0306 23.015C79.0306 22.755 79.1206 22.535 79.3006 22.355C79.4806 22.175 79.7006 22.085 79.9606 22.085C80.2106 22.085 80.4206 22.175 80.5906 22.355C80.7706 22.535 80.8606 22.755 80.8606 23.015C80.8606 23.275 80.7706 23.495 80.5906 23.675C80.4206 23.855 80.2106 23.945 79.9606 23.945ZM80.6206 25.28V33.5H79.2556V25.28H80.6206ZM82.437 29.36C82.437 28.52 82.607 27.785 82.947 27.155C83.287 26.515 83.752 26.02 84.342 25.67C84.942 25.32 85.612 25.145 86.352 25.145C86.992 25.145 87.587 25.295 88.137 25.595C88.687 25.885 89.107 26.27 89.397 26.75V22.4H90.777V33.5H89.397V31.955C89.127 32.445 88.727 32.85 88.197 33.17C87.667 33.48 87.047 33.635 86.337 33.635C85.607 33.635 84.942 33.455 84.342 33.095C83.752 32.735 83.287 32.23 82.947 31.58C82.607 30.93 82.437 30.19 82.437 29.36ZM89.397 29.375C89.397 28.755 89.272 28.215 89.022 27.755C88.772 27.295 88.432 26.945 88.002 26.705C87.582 26.455 87.117 26.33 86.607 26.33C86.097 26.33 85.632 26.45 85.212 26.69C84.792 26.93 84.457 27.28 84.207 27.74C83.957 28.2 83.832 28.74 83.832 29.36C83.832 29.99 83.957 30.54 84.207 31.01C84.457 31.47 84.792 31.825 85.212 32.075C85.632 32.315 86.097 32.435 86.607 32.435C87.117 32.435 87.582 32.315 88.002 32.075C88.432 31.825 88.772 31.47 89.022 31.01C89.272 30.54 89.397 29.995 89.397 29.375Z" fill="white"/>
<defs>
<linearGradient id="paint0_linear_563_150" x1="48.9709" y1="2.24115e-07" x2="48.5819" y2="56.9973" gradientUnits="userSpaceOnUse">
<stop offset="0.0190699" stop-color="#1E4790"/>
<stop offset="0.884581" stop-color="#319BFF"/>
</linearGradient>
<clipPath id="clip0_563_150">
<rect width="25" height="22" fill="white" transform="translate(5 17.5)"/>
</clipPath>
</defs>
</svg>
