<svg width="97" height="57" viewBox="0 0 97 57" fill="none" xmlns="http://www.w3.org/2000/svg">
<rect width="97" height="57" rx="7" fill="url(#paint0_linear_821_148)"/>
<path d="M18.289 17.5H10.9388H10.3695L9.96702 17.9002L4.40248 23.4341L4 23.8343V24.4004V35.8092C4 37.8442 5.66469 39.5 7.71134 39.5H18.289C20.3353 39.5 22 37.8442 22 35.8092V21.1908C22 19.1555 20.3353 17.5 18.289 17.5ZM20.6258 35.8092C20.6258 37.0929 19.5796 38.1334 18.289 38.1334H7.71134C6.42043 38.1334 5.37421 37.0929 5.37421 35.8092V24.4004H8.9914C10.0666 24.4004 10.9388 23.5333 10.9388 22.4638V18.8666H18.289C19.5796 18.8666 20.6258 19.907 20.6258 21.1908V35.8092Z" fill="white"/>
<path d="M17.7883 21.5039H13.9268V25.3442H17.7883V21.5039Z" fill="white"/>
<path d="M17.7883 27.4961H8.21167V28.5713H17.7883V27.4961Z" fill="white"/>
<path d="M17.7883 30.5664H8.21167V31.6417H17.7883V30.5664Z" fill="white"/>
<path d="M17.7883 33.6367H8.21167V34.712H17.7883V33.6367Z" fill="white"/>
<path d="M31.5961 28.115C31.9761 28.175 32.3211 28.33 32.6311 28.58C32.9511 28.83 33.2011 29.14 33.3811 29.51C33.5711 29.88 33.6661 30.275 33.6661 30.695C33.6661 31.225 33.5311 31.705 33.2611 32.135C32.9911 32.555 32.5961 32.89 32.0761 33.14C31.5661 33.38 30.9611 33.5 30.2611 33.5H26.3611V23.045H30.1111C30.8211 23.045 31.4261 23.165 31.9261 23.405C32.4261 23.635 32.8011 23.95 33.0511 24.35C33.3011 24.75 33.4261 25.2 33.4261 25.7C33.4261 26.32 33.2561 26.835 32.9161 27.245C32.5861 27.645 32.1461 27.935 31.5961 28.115ZM27.7261 27.56H30.0211C30.6611 27.56 31.1561 27.41 31.5061 27.11C31.8561 26.81 32.0311 26.395 32.0311 25.865C32.0311 25.335 31.8561 24.92 31.5061 24.62C31.1561 24.32 30.6511 24.17 29.9911 24.17H27.7261V27.56ZM30.1411 32.375C30.8211 32.375 31.3511 32.215 31.7311 31.895C32.1111 31.575 32.3011 31.13 32.3011 30.56C32.3011 29.98 32.1011 29.525 31.7011 29.195C31.3011 28.855 30.7661 28.685 30.0961 28.685H27.7261V32.375H30.1411ZM36.9253 26.615C37.1653 26.145 37.5053 25.78 37.9453 25.52C38.3953 25.26 38.9403 25.13 39.5803 25.13V26.54H39.2203C37.6903 26.54 36.9253 27.37 36.9253 29.03V33.5H35.5603V25.28H36.9253V26.615ZM44.741 33.635C43.971 33.635 43.271 33.46 42.641 33.11C42.021 32.76 41.531 32.265 41.171 31.625C40.821 30.975 40.646 30.225 40.646 29.375C40.646 28.535 40.826 27.795 41.186 27.155C41.556 26.505 42.056 26.01 42.686 25.67C43.316 25.32 44.021 25.145 44.801 25.145C45.581 25.145 46.286 25.32 46.916 25.67C47.546 26.01 48.041 26.5 48.401 27.14C48.771 27.78 48.956 28.525 48.956 29.375C48.956 30.225 48.766 30.975 48.386 31.625C48.016 32.265 47.511 32.76 46.871 33.11C46.231 33.46 45.521 33.635 44.741 33.635ZM44.741 32.435C45.231 32.435 45.691 32.32 46.121 32.09C46.551 31.86 46.896 31.515 47.156 31.055C47.426 30.595 47.561 30.035 47.561 29.375C47.561 28.715 47.431 28.155 47.171 27.695C46.911 27.235 46.571 26.895 46.151 26.675C45.731 26.445 45.276 26.33 44.786 26.33C44.286 26.33 43.826 26.445 43.406 26.675C42.996 26.895 42.666 27.235 42.416 27.695C42.166 28.155 42.041 28.715 42.041 29.375C42.041 30.045 42.161 30.61 42.401 31.07C42.651 31.53 42.981 31.875 43.391 32.105C43.801 32.325 44.251 32.435 44.741 32.435ZM50.2407 29.375C50.2407 28.525 50.4107 27.785 50.7507 27.155C51.0907 26.515 51.5607 26.02 52.1607 25.67C52.7707 25.32 53.4657 25.145 54.2457 25.145C55.2557 25.145 56.0857 25.39 56.7357 25.88C57.3957 26.37 57.8307 27.05 58.0407 27.92H56.5707C56.4307 27.42 56.1557 27.025 55.7457 26.735C55.3457 26.445 54.8457 26.3 54.2457 26.3C53.4657 26.3 52.8357 26.57 52.3557 27.11C51.8757 27.64 51.6357 28.395 51.6357 29.375C51.6357 30.365 51.8757 31.13 52.3557 31.67C52.8357 32.21 53.4657 32.48 54.2457 32.48C54.8457 32.48 55.3457 32.34 55.7457 32.06C56.1457 31.78 56.4207 31.38 56.5707 30.86H58.0407C57.8207 31.7 57.3807 32.375 56.7207 32.885C56.0607 33.385 55.2357 33.635 54.2457 33.635C53.4657 33.635 52.7707 33.46 52.1607 33.11C51.5607 32.76 51.0907 32.265 50.7507 31.625C50.4107 30.985 50.2407 30.235 50.2407 29.375ZM63.942 25.13C64.562 25.13 65.122 25.265 65.622 25.535C66.122 25.795 66.512 26.19 66.792 26.72C67.082 27.25 67.227 27.895 67.227 28.655V33.5H65.877V28.85C65.877 28.03 65.672 27.405 65.262 26.975C64.852 26.535 64.292 26.315 63.582 26.315C62.862 26.315 62.287 26.54 61.857 26.99C61.437 27.44 61.227 28.095 61.227 28.955V33.5H59.862V22.4H61.227V26.45C61.497 26.03 61.867 25.705 62.337 25.475C62.817 25.245 63.352 25.13 63.942 25.13ZM76.7468 25.28V33.5H75.3818V32.285C75.1218 32.705 74.7568 33.035 74.2868 33.275C73.8268 33.505 73.3168 33.62 72.7568 33.62C72.1168 33.62 71.5418 33.49 71.0318 33.23C70.5218 32.96 70.1168 32.56 69.8168 32.03C69.5268 31.5 69.3818 30.855 69.3818 30.095V25.28H70.7318V29.915C70.7318 30.725 70.9368 31.35 71.3468 31.79C71.7568 32.22 72.3168 32.435 73.0268 32.435C73.7568 32.435 74.3318 32.21 74.7518 31.76C75.1718 31.31 75.3818 30.655 75.3818 29.795V25.28H76.7468ZM80.4165 26.615C80.6565 26.145 80.9965 25.78 81.4365 25.52C81.8865 25.26 82.4315 25.13 83.0715 25.13V26.54H82.7115C81.1815 26.54 80.4165 27.37 80.4165 29.03V33.5H79.0515V25.28H80.4165V26.615ZM92.1472 29.075C92.1472 29.335 92.1322 29.61 92.1022 29.9H85.5322C85.5822 30.71 85.8572 31.345 86.3572 31.805C86.8672 32.255 87.4822 32.48 88.2022 32.48C88.7922 32.48 89.2822 32.345 89.6722 32.075C90.0722 31.795 90.3522 31.425 90.5122 30.965H91.9822C91.7622 31.755 91.3222 32.4 90.6622 32.9C90.0022 33.39 89.1822 33.635 88.2022 33.635C87.4222 33.635 86.7222 33.46 86.1022 33.11C85.4922 32.76 85.0122 32.265 84.6622 31.625C84.3122 30.975 84.1372 30.225 84.1372 29.375C84.1372 28.525 84.3072 27.78 84.6472 27.14C84.9872 26.5 85.4622 26.01 86.0722 25.67C86.6922 25.32 87.4022 25.145 88.2022 25.145C88.9822 25.145 89.6722 25.315 90.2722 25.655C90.8722 25.995 91.3322 26.465 91.6522 27.065C91.9822 27.655 92.1472 28.325 92.1472 29.075ZM90.7372 28.79C90.7372 28.27 90.6222 27.825 90.3922 27.455C90.1622 27.075 89.8472 26.79 89.4472 26.6C89.0572 26.4 88.6222 26.3 88.1422 26.3C87.4522 26.3 86.8622 26.52 86.3722 26.96C85.8922 27.4 85.6172 28.01 85.5472 28.79H90.7372Z" fill="white"/>
<defs>
<linearGradient id="paint0_linear_821_148" x1="48.9709" y1="2.24115e-07" x2="48.5819" y2="56.9973" gradientUnits="userSpaceOnUse">
<stop offset="0.0190699" stop-color="#1E4790"/>
<stop offset="0.884581" stop-color="#319BFF"/>
</linearGradient>
</defs>
</svg>
