<svg width="667" height="667" viewBox="0 0 667 667" fill="none" xmlns="http://www.w3.org/2000/svg">
<path d="M666.667 333.333C666.667 517.427 517.427 666.667 333.333 666.667C149.238 666.667 0 517.427 0 333.333C0 149.238 149.238 0 333.333 0C517.427 0 666.667 149.238 666.667 333.333Z" fill="#F50B0B"/>
<path d="M232.322 232.322C242.085 222.559 257.915 222.559 267.677 232.322L333.333 297.98L398.99 232.323C408.753 222.56 424.58 222.56 434.343 232.323C444.107 242.086 444.107 257.915 434.343 267.68L368.69 333.333L434.343 398.987C444.107 408.75 444.107 424.58 434.343 434.343C424.58 444.107 408.75 444.107 398.987 434.343L333.333 368.69L267.68 434.343C257.915 444.107 242.086 444.107 232.323 434.343C222.56 424.58 222.56 408.753 232.323 398.99L297.98 333.333L232.322 267.677C222.559 257.915 222.559 242.085 232.322 232.322Z" fill="white"/>
</svg>
