<svg width="667" height="667" viewBox="0 0 667 667" fill="none" xmlns="http://www.w3.org/2000/svg">
<path d="M666.667 333.333C666.667 517.427 517.427 666.667 333.333 666.667C149.238 666.667 0 517.427 0 333.333C0 149.238 149.238 0 333.333 0C517.427 0 666.667 149.238 666.667 333.333Z" fill="#1C274C"/>
<path d="M225 369.447C225 403.493 225 420.516 235.577 431.093C246.154 441.671 263.177 441.671 297.223 441.671H369.447C403.493 441.671 420.516 441.671 431.093 431.093C441.67 420.516 441.67 403.493 441.67 369.447" stroke="white" stroke-width="24" stroke-linecap="round" stroke-linejoin="round"/>
<path d="M333.334 225V381.484M333.334 381.484L381.483 328.821M333.334 381.484L285.186 328.821" stroke="white" stroke-width="24" stroke-linecap="round" stroke-linejoin="round"/>
</svg>
