<svg width="97" height="57" viewBox="0 0 97 57" fill="none" xmlns="http://www.w3.org/2000/svg">
<rect width="97" height="57" rx="7" fill="url(#paint0_linear_563_136)"/>
<g clip-path="url(#clip0_563_136)">
<path d="M33.9211 31.2453C34.3151 30.5054 33.8054 29.4358 32.8962 29.4358H30.0886L33.9695 22.7156C34.2169 22.2803 34.0714 21.7256 33.6369 21.4782C33.2013 21.2304 32.6477 21.3774 32.3992 21.8108L31.9959 22.5057L31.6027 21.8119C31.3497 21.3763 30.7987 21.2297 30.3653 21.4789C29.9297 21.7319 29.7842 22.2821 30.0324 22.7167L30.9554 24.3179L28.0011 29.4365H25.6931C25.1923 29.4365 24.7883 29.8409 24.7883 30.3413C24.7883 30.842 25.1916 31.2461 25.6931 31.2461H33.9211V31.2453Z" fill="white"/>
<mask id="mask0_563_136" style="mask-type:luminance" maskUnits="userSpaceOnUse" x="21" y="17" width="22" height="23">
<path d="M21 17.5H43V39.5H21V17.5Z" fill="white"/>
</mask>
<g mask="url(#mask0_563_136)">
<path d="M32 39.5C38.0766 39.5 43 34.5766 43 28.5C43 22.4234 38.0766 17.5 32 17.5C25.9234 17.5 21 22.4234 21 28.5C21 34.5766 25.9234 39.5 32 39.5ZM32 18.9189C37.2645 18.9189 41.5811 23.1815 41.5811 28.5C41.5811 33.7645 37.3185 38.0811 32 38.0811C26.7355 38.0811 22.4189 33.8185 22.4189 28.5C22.4189 23.2347 26.6823 18.9189 32 18.9189Z" fill="white"/>
</g>
<path d="M26.7114 31.6629L26.0645 32.7804C25.8167 33.2157 25.9618 33.7704 26.3971 34.0178C26.8323 34.2655 27.387 34.1186 27.6344 33.6852L28.5046 32.1774L28.5035 32.1781C28.0332 31.6097 27.4384 31.4367 26.7114 31.6629Z" fill="white"/>
<path d="M33.3299 24.827C32.7927 25.2705 32.251 26.5834 33.0099 27.8914C33.7499 29.1782 34.8682 31.1079 36.3541 33.6838C36.607 34.1191 37.1569 34.2649 37.5914 34.0164C38.027 33.7634 38.1729 33.2136 37.9244 32.779L37.0423 31.25H38.3515C38.8518 31.25 39.2562 30.8456 39.2562 30.3453C39.2562 29.8449 38.8529 29.4405 38.3515 29.4405H35.9965V29.4397C34.8124 27.3862 33.9247 25.8471 33.3299 24.827Z" fill="white"/>
</g>
<path d="M53.52 23.045V33.5H52.155V23.045H53.52ZM60.5864 33.605C59.6164 33.605 58.7314 33.38 57.9314 32.93C57.1314 32.47 56.4964 31.835 56.0264 31.025C55.5664 30.205 55.3364 29.285 55.3364 28.265C55.3364 27.245 55.5664 26.33 56.0264 25.52C56.4964 24.7 57.1314 24.065 57.9314 23.615C58.7314 23.155 59.6164 22.925 60.5864 22.925C61.5664 22.925 62.4564 23.155 63.2564 23.615C64.0564 24.065 64.6864 24.695 65.1464 25.505C65.6064 26.315 65.8364 27.235 65.8364 28.265C65.8364 29.295 65.6064 30.215 65.1464 31.025C64.6864 31.835 64.0564 32.47 63.2564 32.93C62.4564 33.38 61.5664 33.605 60.5864 33.605ZM60.5864 32.42C61.3164 32.42 61.9714 32.25 62.5514 31.91C63.1414 31.57 63.6014 31.085 63.9314 30.455C64.2714 29.825 64.4414 29.095 64.4414 28.265C64.4414 27.425 64.2714 26.695 63.9314 26.075C63.6014 25.445 63.1464 24.96 62.5664 24.62C61.9864 24.28 61.3264 24.11 60.5864 24.11C59.8464 24.11 59.1864 24.28 58.6064 24.62C58.0264 24.96 57.5664 25.445 57.2264 26.075C56.8964 26.695 56.7314 27.425 56.7314 28.265C56.7314 29.095 56.8964 29.825 57.2264 30.455C57.5664 31.085 58.0264 31.57 58.6064 31.91C59.1964 32.25 59.8564 32.42 60.5864 32.42ZM70.9534 33.605C70.2634 33.605 69.6434 33.485 69.0934 33.245C68.5534 32.995 68.1284 32.655 67.8184 32.225C67.5084 31.785 67.3484 31.28 67.3384 30.71H68.7934C68.8434 31.2 69.0434 31.615 69.3934 31.955C69.7534 32.285 70.2734 32.45 70.9534 32.45C71.6034 32.45 72.1134 32.29 72.4834 31.97C72.8634 31.64 73.0534 31.22 73.0534 30.71C73.0534 30.31 72.9434 29.985 72.7234 29.735C72.5034 29.485 72.2284 29.295 71.8984 29.165C71.5684 29.035 71.1234 28.895 70.5634 28.745C69.8734 28.565 69.3184 28.385 68.8984 28.205C68.4884 28.025 68.1334 27.745 67.8334 27.365C67.5434 26.975 67.3984 26.455 67.3984 25.805C67.3984 25.235 67.5434 24.73 67.8334 24.29C68.1234 23.85 68.5284 23.51 69.0484 23.27C69.5784 23.03 70.1834 22.91 70.8634 22.91C71.8434 22.91 72.6434 23.155 73.2634 23.645C73.8934 24.135 74.2484 24.785 74.3284 25.595H72.8284C72.7784 25.195 72.5684 24.845 72.1984 24.545C71.8284 24.235 71.3384 24.08 70.7284 24.08C70.1584 24.08 69.6934 24.23 69.3334 24.53C68.9734 24.82 68.7934 25.23 68.7934 25.76C68.7934 26.14 68.8984 26.45 69.1084 26.69C69.3284 26.93 69.5934 27.115 69.9034 27.245C70.2234 27.365 70.6684 27.505 71.2384 27.665C71.9284 27.855 72.4834 28.045 72.9034 28.235C73.3234 28.415 73.6834 28.7 73.9834 29.09C74.2834 29.47 74.4334 29.99 74.4334 30.65C74.4334 31.16 74.2984 31.64 74.0284 32.09C73.7584 32.54 73.3584 32.905 72.8284 33.185C72.2984 33.465 71.6734 33.605 70.9534 33.605Z" fill="white"/>
<defs>
<linearGradient id="paint0_linear_563_136" x1="48.9709" y1="2.24115e-07" x2="48.5819" y2="56.9973" gradientUnits="userSpaceOnUse">
<stop offset="0.0190699" stop-color="#1E4790"/>
<stop offset="0.884581" stop-color="#319BFF"/>
</linearGradient>
<clipPath id="clip0_563_136">
<rect width="22" height="22" fill="white" transform="translate(21 17.5)"/>
</clipPath>
</defs>
</svg>
