<svg width="97" height="57" viewBox="0 0 97 57" fill="none" xmlns="http://www.w3.org/2000/svg">
<rect width="97" height="57" rx="7" fill="url(#paint0_linear_821_133)"/>
<path d="M31.6043 18.5045C28.9345 17.2749 25.9456 17.1582 23.1881 18.1764C20.4306 19.1946 18.2349 21.2258 17.0048 23.8954C15.7753 26.5652 15.6585 29.554 16.6767 32.3115C17.6949 35.069 19.7261 37.2648 22.3957 38.4948C25.0655 39.7244 28.0544 39.8411 30.8119 38.8229C33.5693 37.8047 35.7651 35.7735 36.9951 33.1039C38.2247 30.4341 38.3414 27.4452 37.3232 24.6878C36.305 21.9303 34.2739 19.7345 31.6043 18.5045ZM17.8184 31.89C17.3939 30.7403 17.2007 29.5607 17.2134 28.4023L20.9264 27.0312C21.1439 28.1316 21.4631 29.2635 21.8792 30.3905C22.2813 31.4795 22.7549 32.5138 23.2828 33.4643L19.5467 34.8439C18.8199 33.9918 18.2284 33.0002 17.8184 31.89ZM23.0209 29.9689C22.6022 28.8349 22.2875 27.699 22.0831 26.6041L25.2232 25.4446L27.5964 31.8715L24.4384 33.0376C23.9048 32.0984 23.4256 31.0649 23.0209 29.9689ZM27.2427 20.8482C27.8036 21.4036 28.343 22.0649 28.8468 22.8093L25.9433 23.8814L24.2196 19.2131C25.0984 19.2111 26.1649 19.7806 27.2427 20.8482ZM23.0779 19.6346L24.8017 24.3029L21.8983 25.375C21.7974 24.4819 21.7775 23.6287 21.8429 22.8421C21.9683 21.3302 22.4087 20.2043 23.0779 19.6346ZM28.0179 33.0132L29.7804 37.7862C28.9016 37.7882 27.8351 37.2187 26.7573 36.1511C26.1725 35.572 25.6116 34.8781 25.089 34.0947L28.0179 33.0132ZM30.9221 37.3646L29.1596 32.5916L32.0885 31.5101C32.2005 32.4451 32.2251 33.337 32.157 34.1572C32.0317 35.6691 31.5913 36.795 30.9221 37.3646ZM28.7381 31.4499L26.3649 25.023L29.505 23.8636C30.0613 24.8285 30.5604 25.8964 30.9791 27.0304C31.3838 28.1263 31.6912 29.2232 31.896 30.2839L28.7381 31.4499ZM30.6617 23.4364L34.3748 22.0654C35.1372 22.9376 35.757 23.9596 36.1816 25.1093C36.5915 26.2196 36.7864 27.3577 36.7877 28.4776L33.0516 29.8571C32.8351 28.7917 32.5229 27.6977 32.1208 26.6088C31.7046 25.4818 31.2116 24.4141 30.6617 23.4364ZM33.4246 21.1189L30.0192 22.3764C29.4233 21.4633 28.7771 20.6545 28.0992 19.9832C27.5737 19.4627 27.0455 19.042 26.5242 18.7231C29.0608 18.6014 31.5367 19.4808 33.4246 21.1189ZM21.0079 20.76C20.819 21.3412 20.6909 22.0042 20.6298 22.7413C20.5508 23.6921 20.5853 24.7268 20.7259 25.8079L17.3204 27.0654C17.6907 24.5935 19.0009 22.316 21.0079 20.76ZM20.4801 35.7965L23.9184 34.5269C24.5313 35.4797 25.1995 36.3213 25.9008 37.0161C26.4262 37.5366 26.9545 37.9572 27.4757 38.2762C24.8962 38.3999 22.3799 37.4882 20.4801 35.7965ZM32.9921 36.2393C33.181 35.6581 33.3091 34.9951 33.3702 34.258C33.4516 33.2741 33.4126 32.2003 33.2592 31.0778L36.6975 29.8082C36.353 32.3286 35.033 34.6568 32.9921 36.2393Z" fill="white"/>
<path d="M63.894 23.045L60.864 33.5H59.334L56.904 25.085L54.384 33.5L52.869 33.515L49.944 23.045H51.399L53.679 31.91L56.199 23.045H57.729L60.129 31.88L62.424 23.045H63.894ZM72.8878 29.075C72.8878 29.335 72.8728 29.61 72.8428 29.9H66.2728C66.3228 30.71 66.5978 31.345 67.0978 31.805C67.6078 32.255 68.2228 32.48 68.9428 32.48C69.5328 32.48 70.0228 32.345 70.4128 32.075C70.8128 31.795 71.0928 31.425 71.2528 30.965H72.7228C72.5028 31.755 72.0628 32.4 71.4028 32.9C70.7428 33.39 69.9228 33.635 68.9428 33.635C68.1628 33.635 67.4628 33.46 66.8428 33.11C66.2328 32.76 65.7528 32.265 65.4028 31.625C65.0528 30.975 64.8778 30.225 64.8778 29.375C64.8778 28.525 65.0478 27.78 65.3878 27.14C65.7278 26.5 66.2028 26.01 66.8128 25.67C67.4328 25.32 68.1428 25.145 68.9428 25.145C69.7228 25.145 70.4128 25.315 71.0128 25.655C71.6128 25.995 72.0728 26.465 72.3928 27.065C72.7228 27.655 72.8878 28.325 72.8878 29.075ZM71.4778 28.79C71.4778 28.27 71.3628 27.825 71.1328 27.455C70.9028 27.075 70.5878 26.79 70.1878 26.6C69.7978 26.4 69.3628 26.3 68.8828 26.3C68.1928 26.3 67.6028 26.52 67.1128 26.96C66.6328 27.4 66.3578 28.01 66.2878 28.79H71.4778ZM76.0545 26.81C76.3345 26.32 76.7445 25.92 77.2845 25.61C77.8245 25.3 78.4395 25.145 79.1295 25.145C79.8695 25.145 80.5345 25.32 81.1245 25.67C81.7145 26.02 82.1795 26.515 82.5195 27.155C82.8595 27.785 83.0295 28.52 83.0295 29.36C83.0295 30.19 82.8595 30.93 82.5195 31.58C82.1795 32.23 81.7095 32.735 81.1095 33.095C80.5195 33.455 79.8595 33.635 79.1295 33.635C78.4195 33.635 77.7945 33.48 77.2545 33.17C76.7245 32.86 76.3245 32.465 76.0545 31.985V33.5H74.6895V22.4H76.0545V26.81ZM81.6345 29.36C81.6345 28.74 81.5095 28.2 81.2595 27.74C81.0095 27.28 80.6695 26.93 80.2395 26.69C79.8195 26.45 79.3545 26.33 78.8445 26.33C78.3445 26.33 77.8795 26.455 77.4495 26.705C77.0295 26.945 76.6895 27.3 76.4295 27.77C76.1795 28.23 76.0545 28.765 76.0545 29.375C76.0545 29.995 76.1795 30.54 76.4295 31.01C76.6895 31.47 77.0295 31.825 77.4495 32.075C77.8795 32.315 78.3445 32.435 78.8445 32.435C79.3545 32.435 79.8195 32.315 80.2395 32.075C80.6695 31.825 81.0095 31.47 81.2595 31.01C81.5095 30.54 81.6345 29.99 81.6345 29.36Z" fill="white"/>
<defs>
<linearGradient id="paint0_linear_821_133" x1="48.9709" y1="2.24115e-07" x2="48.5819" y2="56.9973" gradientUnits="userSpaceOnUse">
<stop offset="0.0190699" stop-color="#1E4790"/>
<stop offset="0.884581" stop-color="#319BFF"/>
</linearGradient>
</defs>
</svg>
